<svg xmlns="http://www.w3.org/2000/svg" width="390" height="844" viewBox="0 0 390 844">
  <defs>
    <linearGradient id="sky" x1="0" y1="0" x2="0" y2="1">
      <stop offset="0" stop-color="#d8f1ff"/>
      <stop offset=".52" stop-color="#edf9ff"/>
      <stop offset="1" stop-color="#bfe7ff"/>
    </linearGradient>
    <pattern id="gingham" width="54" height="54" patternUnits="userSpaceOnUse" patternTransform="rotate(45 27 27)">
      <rect width="54" height="54" fill="none"/>
      <rect width="27" height="54" fill="#ffffff" opacity=".32"/>
      <rect width="54" height="27" fill="#ffffff" opacity=".24"/>
    </pattern>
    <pattern id="grid" width="42" height="42" patternUnits="userSpaceOnUse">
      <path d="M42 0H0V42" fill="none" stroke="#8ec8ee" stroke-width="1" opacity=".24"/>
    </pattern>
    <filter id="soft" x="-20%" y="-20%" width="140%" height="140%">
      <feDropShadow dx="0" dy="4" stdDeviation="3" flood-color="#7bbde8" flood-opacity=".2"/>
    </filter>
  </defs>
  <rect width="390" height="844" fill="url(#sky)"/>
  <rect width="390" height="844" fill="url(#gingham)" opacity=".88"/>
  <rect width="390" height="844" fill="url(#grid)" opacity=".62"/>
  <g opacity=".6">
    <circle cx="54" cy="142" r="4" fill="#70bdf0"/>
    <circle cx="336" cy="150" r="4" fill="#70bdf0"/>
    <path d="M42 212l8 10 8-10" fill="#77c2f2"/>
    <path d="M332 218l8 10 8-10" fill="#77c2f2"/>
    <path d="M42 312c16-18 30 18 46 0M42 312c16 18 30-18 46 0" fill="none" stroke="#75bff0" stroke-width="4" stroke-linecap="round"/>
    <path d="M304 312c16-18 30 18 46 0M304 312c16 18 30-18 46 0" fill="none" stroke="#75bff0" stroke-width="4" stroke-linecap="round"/>
  </g>
  <g opacity=".42" stroke="#94cdec" stroke-width="1.2">
    <path d="M81 112v480M138 112v480M195 112v480M252 112v480M309 112v480"/>
    <path d="M24 192h342M24 272h342M24 352h342M24 432h342M24 512h342"/>
  </g>
</svg>
